<svg xmlns="http://www.w3.org/2000/svg" width="142" height="47" fill="none"><mask id="a" width="31" height="39" x="3" y="4" maskUnits="userSpaceOnUse" style="mask-type:luminance"><path fill="#fff" d="M34 4.25H3V43h31V4.25Z"/></mask><g mask="url(#a)"><path fill="#FF4200" d="M18.502 34.163V43L34 34.048v-8.836l-15.498 8.95Z"/><path fill="#111E21" d="m25.44 17.095 7.646-4.42L18.503 4.25v8.837l6.937 4.008Z"/><path fill="#FF4200" d="M12.478 19.733v8.84l6.023 3.479v-8.837l-6.023-3.482ZM34 14.26l-15.498 8.956v8.836L34 23.1v-8.84Z"/><path fill="#111E21" d="m3.923 12.67 7.601 4.445 6.977-4.028V4.25L3.923 12.67Z"/><path fill="#FF4200" d="M10.65 29.63V18.672L3 14.256v19.792L18.501 43v-8.837L10.65 29.63Z"/></g><path fill="#111E21" d="M38.744 33V15.956h5.82c1.996 0 3.636.357 4.918 1.07 1.299.699 2.256 1.69 2.873 2.971.633 1.267.95 2.76.95 4.48 0 1.721-.317 3.223-.95 4.505-.617 1.267-1.574 2.257-2.873 2.971C48.2 32.651 46.56 33 44.563 33h-5.82Zm3.117-2.678h2.556c1.429 0 2.557-.228 3.385-.682a4.015 4.015 0 0 0 1.777-1.997c.357-.876.536-1.932.536-3.165 0-1.218-.179-2.265-.536-3.141a4.002 4.002 0 0 0-1.777-2.021c-.828-.471-1.956-.706-3.385-.706h-2.556v11.712Zm19.502 2.97c-1.218 0-2.297-.26-3.239-.779a5.64 5.64 0 0 1-2.215-2.191c-.536-.942-.804-2.03-.804-3.263 0-1.25.26-2.362.78-3.336a5.77 5.77 0 0 1 2.19-2.265c.942-.551 2.046-.827 3.312-.827 1.185 0 2.232.26 3.141.779a5.485 5.485 0 0 1 2.119 2.142c.52.893.779 1.892.779 2.995 0 .179-.008.366-.025.56 0 .195-.008.398-.024.61h-9.18c.065.94.39 1.68.974 2.215.601.536 1.323.803 2.168.803.633 0 1.16-.137 1.582-.413.438-.293.763-.666.974-1.12h3.166a5.765 5.765 0 0 1-1.145 2.094 5.503 5.503 0 0 1-1.948 1.46c-.763.358-1.631.536-2.605.536Zm.024-10.13c-.763 0-1.436.22-2.02.658-.585.422-.959 1.072-1.12 1.948h6.013c-.048-.795-.34-1.428-.876-1.899-.536-.47-1.201-.706-1.997-.706ZM69.56 33V15.468h3.117V33H69.56Zm7.495-13.952c-.569 0-1.04-.17-1.413-.511-.357-.341-.535-.771-.535-1.291 0-.52.178-.941.535-1.266.374-.341.845-.511 1.413-.511.568 0 1.03.17 1.387.51.374.326.56.748.56 1.267 0 .52-.186.95-.56 1.29-.357.341-.82.512-1.387.512ZM75.496 33V20.923h3.117V33h-3.117Zm9.146 0L80.21 20.923h3.263l3.068 9.13 3.068-9.13h3.263L88.416 33h-3.774Zm14.983.292c-1.218 0-2.297-.26-3.239-.779a5.638 5.638 0 0 1-2.216-2.191c-.535-.942-.803-2.03-.803-3.263 0-1.25.26-2.362.779-3.336a5.77 5.77 0 0 1 2.191-2.265c.942-.551 2.046-.827 3.312-.827 1.185 0 2.232.26 3.141.779a5.483 5.483 0 0 1 2.118 2.142c.52.893.779 1.892.779 2.995 0 .179-.008.366-.024.56 0 .195-.008.398-.024.61h-9.18c.065.94.39 1.68.974 2.215.6.536 1.323.803 2.167.803.633 0 1.161-.137 1.583-.413.438-.293.763-.666.974-1.12h3.165a5.754 5.754 0 0 1-1.144 2.094 5.509 5.509 0 0 1-1.948 1.46c-.763.358-1.632.536-2.606.536Zm.024-10.13c-.763 0-1.437.22-2.021.658-.585.422-.958 1.072-1.12 1.948h6.014c-.049-.795-.341-1.428-.877-1.899-.535-.47-1.201-.706-1.996-.706ZM107.822 33V20.923h2.776l.292 2.264a4.992 4.992 0 0 1 1.777-1.85c.763-.471 1.656-.706 2.679-.706v3.287h-.877c-.682 0-1.29.105-1.826.316a2.514 2.514 0 0 0-1.266 1.096c-.292.52-.438 1.242-.438 2.167V33h-3.117Zm14.821.292c-1.217 0-2.297-.26-3.238-.779a5.638 5.638 0 0 1-2.216-2.191c-.536-.942-.804-2.03-.804-3.263 0-1.25.26-2.362.78-3.336a5.766 5.766 0 0 1 2.191-2.265c.941-.551 2.045-.827 3.311-.827 1.185 0 2.233.26 3.142.779a5.483 5.483 0 0 1 2.118 2.142c.519.893.779 1.892.779 2.995 0 .179-.008.366-.024.56 0 .195-.008.398-.025.61h-9.179c.065.94.389 1.68.974 2.215.6.536 1.323.803 2.167.803.633 0 1.16-.137 1.582-.413.439-.293.763-.666.974-1.12h3.166a5.756 5.756 0 0 1-1.145 2.094 5.496 5.496 0 0 1-1.947 1.46c-.763.358-1.632.536-2.606.536Zm.024-10.13a3.28 3.28 0 0 0-2.021.658c-.584.422-.957 1.072-1.12 1.948h6.015c-.049-.795-.341-1.428-.877-1.899-.536-.47-1.201-.706-1.997-.706ZM130.84 33V20.923h2.776l.292 2.264a4.995 4.995 0 0 1 1.778-1.85c.763-.471 1.656-.706 2.678-.706v3.287h-.876c-.682 0-1.291.105-1.826.316a2.52 2.52 0 0 0-1.267 1.096c-.292.52-.438 1.242-.438 2.167V33h-3.117Z"/></svg>